<svg width="177" height="48" viewBox="0 0 177 48" fill="none" xmlns="http://www.w3.org/2000/svg">
<path fill-rule="evenodd" clip-rule="evenodd" d="M2.72671 27.4716C2.71532 25.1089 3.17427 22.7671 4.07724 20.5807C4.98021 18.3943 6.30944 16.4063 7.98867 14.7307C9.66789 13.0551 11.6641 11.7248 13.8627 10.8163C16.0613 9.90778 18.4191 9.43882 20.8009 9.43634H50.5502V6.73152H36.7465L30.4167 0L24.0869 6.73152H20.6547C15.1458 6.77537 9.8789 8.9833 6.00759 12.8717C2.13628 16.7601 -0.0238887 22.0121 0.000199311 27.4773C0.0598056 38.8612 9.52182 48 20.9989 48H47.8198C48.5429 48 49.2364 47.715 49.7477 47.2078C50.2591 46.7005 50.5463 46.0125 50.5463 45.2952H20.997C11.0254 45.2952 2.78439 37.3638 2.72671 27.4716ZM30.4167 3.96757L33.0144 6.73152H27.8229L30.4167 3.96757ZM30.4167 11.3458H20.8028C16.5192 11.3458 12.411 13.0339 9.38204 16.0387C6.35307 19.0436 4.65141 23.1191 4.65141 27.3686C4.65141 31.6182 6.35307 35.6937 9.38204 38.6985C12.411 41.7034 16.5192 43.3915 20.8028 43.3915H42.6821V40.6829H20.7989C17.239 40.6829 13.8248 39.2799 11.3075 36.7827C8.7902 34.2854 7.37599 30.8984 7.37599 27.3667C7.37599 23.8351 8.7902 20.448 11.3075 17.9508C13.8248 15.4535 17.239 14.0506 20.7989 14.0506H30.4128L30.4167 11.3458ZM9.29879 27.3667C9.30236 30.3914 10.5151 33.2912 12.6711 35.4299C14.827 37.5687 17.75 38.7718 20.799 38.7754H36.5485V36.0705H20.799C18.472 36.0705 16.2404 35.1535 14.595 33.5213C12.9497 31.889 12.0253 29.6751 12.0253 27.3667C12.0253 25.0583 12.9497 22.8444 14.595 21.2121C16.2404 19.5798 18.472 18.6628 20.799 18.6628H30.4129V15.958H20.799C17.75 15.9615 14.827 17.1647 12.6711 19.3034C10.5151 21.4422 9.30236 24.342 9.29879 27.3667ZM46.2816 13.3905H50.5502L48.4159 16.536L46.2816 13.3905ZM46.2816 13.3905L44.1454 16.536L42.0092 13.3905H46.2816ZM37.7406 13.3905H42.0092L39.8749 16.536L37.7406 13.3905ZM33.4701 13.3905L35.6043 16.536L37.7406 13.3905H33.4701ZM20.7989 20.5627H50.5502C50.5524 20.9197 50.4835 21.2736 50.3472 21.604C50.211 21.9344 50.0102 22.2348 49.7564 22.4878C49.5025 22.7408 49.2008 22.9415 48.8684 23.0783C48.536 23.2151 48.1796 23.2852 47.8198 23.2847H20.8912C19.9176 23.28 18.9725 23.6106 18.2172 24.22C17.4619 24.8295 16.9432 25.6801 16.7495 26.6266V26.6629C16.7456 26.683 16.7424 26.7072 16.7392 26.7305V26.7305C16.7346 26.7647 16.7303 26.7969 16.7246 26.8117C16.715 26.8365 16.7149 26.8613 16.7149 26.888L16.7034 27.0043V27.1035V27.2084V27.3133V27.4221V27.5251V27.6338V27.7349L16.7149 27.8436C16.7243 27.8663 16.7253 27.888 16.7263 27.9113V27.9114C16.7268 27.9215 16.7272 27.9319 16.7284 27.9428C16.73 27.9577 16.7329 27.9723 16.7357 27.9867C16.7398 28.0073 16.7438 28.0275 16.7438 28.0477L16.7611 28.1469C16.7634 28.1572 16.7662 28.1675 16.7691 28.1778C16.7756 28.2019 16.7822 28.2259 16.7822 28.2499L16.8053 28.3472C16.8096 28.3624 16.8135 28.3776 16.8173 28.3927L16.8173 28.3927C16.8221 28.4116 16.8269 28.4302 16.8322 28.4483C16.8391 28.4714 16.8449 28.4925 16.8512 28.5151L16.8513 28.5154L16.8514 28.5157L16.8591 28.5437C16.8652 28.5652 16.8727 28.5874 16.8798 28.6085L16.8798 28.6085C16.8841 28.6211 16.8883 28.6333 16.8918 28.6448L16.8919 28.6451L16.892 28.6451L16.892 28.6451L16.892 28.6452L16.892 28.6452L16.892 28.6452C16.9016 28.6756 16.9111 28.706 16.9226 28.7363L16.9591 28.8336L16.9592 28.8336C16.9707 28.8641 16.9822 28.8947 16.9957 28.9252L17.0361 29.0205L17.0764 29.1102L17.1226 29.2017L17.1668 29.2876L17.2168 29.3791C17.2295 29.3988 17.2412 29.4194 17.2526 29.4396L17.2649 29.4612L17.3206 29.5489L17.3725 29.6309C17.3771 29.6377 17.3818 29.6444 17.3867 29.6511L17.4011 29.6709L17.4011 29.6709C17.4121 29.6859 17.4229 29.7007 17.4321 29.7149C17.4413 29.729 17.451 29.742 17.4609 29.7554C17.4698 29.7673 17.4788 29.7796 17.4879 29.7931C17.5071 29.8217 17.5283 29.8503 17.5494 29.8751C17.5642 29.8924 17.5781 29.9107 17.5916 29.9286L17.5917 29.9287L17.609 29.9514L17.6763 30.0296L17.7398 30.1021L17.809 30.1765C17.8183 30.1857 17.8273 30.1952 17.8362 30.2046L17.8362 30.2047L17.8362 30.2047C17.8494 30.2187 17.8625 30.2326 17.8763 30.2451L17.9494 30.3176L18.0205 30.3844L18.0974 30.4531L18.1705 30.5141L18.2512 30.579L18.3262 30.6381L18.4108 30.6991L18.4878 30.7544L18.5762 30.8117L18.657 30.8632C18.6877 30.8803 18.7185 30.8975 18.7473 30.9166L18.83 30.9624L18.9242 31.012L19.0088 31.0558L19.1069 31.0997L19.1934 31.1378C19.2164 31.1486 19.2404 31.1574 19.2646 31.1664L19.278 31.1714L19.2953 31.1779L19.3818 31.2122L19.4857 31.2485L19.5741 31.279L19.6837 31.3095L19.7722 31.3343L19.8856 31.361L19.9721 31.382L20.0913 31.403L20.1779 31.4182L20.3029 31.4335L20.3855 31.445L20.5259 31.4564H20.597H20.8105H30.4244V34.1326H20.8105H20.4567H20.3413L20.1067 34.1154L19.9683 34.0964L19.7626 34.0716L19.6184 34.0449L19.54 34.031L19.5399 34.031C19.4979 34.0236 19.4566 34.0164 19.4261 34.0105C19.3915 34.0039 19.3578 33.9955 19.3243 33.9871L19.3238 33.987C19.3091 33.9833 19.2945 33.9797 19.2799 33.9762L19.0877 33.9342L18.9396 33.8923L18.7608 33.8408L18.6127 33.7912L18.4416 33.732C18.4063 33.7199 18.3719 33.7059 18.3378 33.6919C18.3237 33.6862 18.3096 33.6804 18.2955 33.6748L18.1282 33.61L17.984 33.5451L17.9373 33.5239L17.9371 33.5238C17.899 33.5067 17.8612 33.4897 17.8244 33.4707L17.684 33.4001L17.5283 33.32L17.3898 33.2399L17.2399 33.1541L17.1053 33.0682L16.9611 32.9748L16.8303 32.8832L16.8045 32.8651L16.8045 32.8651C16.766 32.8382 16.7264 32.8105 16.6919 32.784C16.6732 32.7697 16.6556 32.7553 16.6378 32.7408C16.6154 32.7225 16.5926 32.704 16.5669 32.6848C16.5411 32.6656 16.5152 32.6446 16.4901 32.6241C16.4703 32.608 16.4509 32.5923 16.4323 32.578C16.4041 32.5564 16.3776 32.5331 16.3511 32.5097L16.3305 32.4916L16.3112 32.475L16.1823 32.3625L16.067 32.2537L15.9439 32.1355L15.8343 32.021L15.717 31.897C15.6992 31.8775 15.6833 31.8585 15.6672 31.8392L15.6672 31.8392L15.6671 31.8392C15.6501 31.8189 15.6329 31.7984 15.6132 31.7769C15.5881 31.7495 15.5631 31.7197 15.5391 31.6912L15.5168 31.6648L15.5017 31.6471C15.4672 31.6072 15.4346 31.5654 15.402 31.5236L15.402 31.5236L15.402 31.5235L15.4019 31.5235L15.4019 31.5234L15.4019 31.5234L15.4018 31.5233L15.4018 31.5233L15.4017 31.5232L15.2979 31.3877L15.2056 31.258C15.1787 31.2203 15.1505 31.1801 15.1242 31.1426L15.1075 31.1188C15.0885 31.0917 15.071 31.0639 15.0535 31.0362L15.0535 31.0362C15.0427 31.0191 15.032 31.002 15.021 30.9853L14.9287 30.8403C14.9166 30.8197 14.9053 30.7992 14.8939 30.7785C14.8799 30.753 14.8657 30.7273 14.8499 30.701C14.821 30.6534 14.7902 30.6018 14.7652 30.5542L14.7652 30.5541C14.7402 30.5064 14.7152 30.4588 14.6922 30.4111L14.6153 30.2585C14.5962 30.2174 14.5784 30.1777 14.5597 30.136L14.548 30.1097C14.5249 30.0582 14.4999 30.0029 14.4787 29.9533C14.4649 29.9208 14.4527 29.8892 14.44 29.8562L14.4399 29.856L14.4399 29.8559C14.4332 29.8386 14.4264 29.8209 14.4191 29.8026C14.398 29.7492 14.3768 29.6939 14.3576 29.6424C14.3384 29.5909 14.3211 29.5413 14.3038 29.4879C14.2964 29.465 14.2889 29.4411 14.2815 29.4171C14.2716 29.3852 14.2617 29.3533 14.2519 29.3238C14.2378 29.2819 14.2262 29.2399 14.2141 29.1959L14.2057 29.1655C14.1903 29.1102 14.175 29.053 14.1615 28.9995C14.1539 28.9694 14.1469 28.9392 14.1398 28.9087C14.1344 28.8852 14.1289 28.8615 14.123 28.8374C14.1126 28.7945 14.1033 28.7493 14.0943 28.7054L14.0865 28.6676C14.0806 28.6391 14.0761 28.6117 14.0717 28.5839C14.0675 28.5577 14.0632 28.5313 14.0577 28.5036C14.0461 28.4464 14.0365 28.3853 14.0288 28.33C14.0242 28.297 14.0203 28.2654 14.0163 28.2326L14.0121 28.1985L14.0077 28.1641C14.0047 28.1414 14.0032 28.1188 14.0017 28.0963C13.9992 28.06 13.9967 28.0239 13.9884 27.9886C13.975 27.9314 13.975 27.876 13.975 27.8188L13.9634 27.6395V27.4698V27.3553V27.2885V27.2237V27.115V26.9395L13.975 26.7792C13.9768 26.76 13.9778 26.7381 13.9789 26.7159C13.9813 26.6675 13.9837 26.6172 13.9942 26.5885C14.0096 26.5466 14.0096 26.5065 14.0096 26.4646V26.4645L14.0096 26.4643L14.0096 26.4642L14.0096 26.4642C14.0212 26.3861 14.0327 26.308 14.0461 26.2318L14.0577 26.1631C14.3423 24.5942 15.173 23.1742 16.405 22.1507C17.637 21.1272 19.192 20.5652 20.7989 20.5627ZM71.6853 22.5618H68.3109L68.3147 17.6214H64.8076V20.042C64.8076 21.4669 64.0384 22.5618 62.3079 22.5618H61.4715V25.9743H64.4692V34.0963C64.4692 37.1121 66.34 38.9013 69.3473 38.9013C70.7586 38.9013 71.4854 38.6362 71.72 38.537V35.3553C71.2789 35.4354 70.832 35.48 70.3836 35.4888C68.9473 35.4888 68.3109 34.8918 68.3109 33.4669V25.9743H71.6853V22.5618ZM77.7998 38.7029H73.9254V14.7048H77.7998V24.1183C78.9035 22.6934 80.7417 22.0964 82.4453 22.0964C86.4543 22.0964 88.3924 24.9576 88.3924 28.4941V38.7029H84.5161V29.1655C84.5161 27.176 83.6143 25.5852 81.1743 25.5852C79.0362 25.5852 77.8671 27.176 77.7998 29.2304V38.7029ZM98.4159 39.2103C102.325 39.2103 104.898 36.9232 105.767 34.1059L102.486 33.0854C101.952 34.6762 100.748 35.9027 98.4101 35.9027C96.0047 35.9027 94.0665 34.1459 93.9666 31.6929H105.867C105.944 31.2887 105.978 30.8776 105.967 30.4664C105.967 25.3543 103.027 22.0734 98.014 22.0734C93.905 22.0734 90.096 25.4535 90.096 30.5579C90.096 36.0286 94.005 39.2103 98.4159 39.2103ZM98.0486 25.2875C100.721 25.2875 101.99 26.9795 102.058 28.8679H94.0723C94.1483 27.88 94.6027 26.9585 95.3422 26.2926C96.0817 25.6268 97.0501 25.2671 98.0486 25.2875ZM117.894 30.6152C117.894 33.8579 120.009 35.6872 122.439 35.6872C124.977 35.6872 126.146 33.9304 126.515 32.7039L129.923 33.9304C129.153 36.4483 126.715 39.2008 122.439 39.2008C117.661 39.2008 114.019 35.5212 114.019 30.6171C114.019 25.6462 117.661 22.0658 122.337 22.0658C126.715 22.0658 129.121 24.784 129.788 27.3686L126.314 28.6295C125.946 27.2027 124.845 25.6118 122.372 25.6118C119.999 25.6099 117.894 27.3667 117.894 30.6152ZM140.113 26.2737C140.538 26.2749 140.963 26.3081 141.382 26.3729V22.4568C141.041 22.3901 140.694 22.3563 140.346 22.3557C138.208 22.3557 136.404 23.3839 135.635 25.1407V22.5617H131.861V38.7029H135.735V31.0138C135.735 27.9905 137.106 26.2737 140.113 26.2737ZM159.291 30.6152C159.291 35.588 155.717 39.1989 150.831 39.1989C145.986 39.1989 142.411 35.5861 142.411 30.6152C142.411 25.6767 145.986 22.0639 150.831 22.0639C155.717 22.0639 159.291 25.6767 159.291 30.6152ZM155.382 30.6152C155.382 27.2676 153.244 25.5451 150.839 25.5451C148.466 25.5451 146.293 27.2618 146.293 30.6152C146.293 33.9686 148.466 35.754 150.839 35.754C153.244 35.754 155.382 33.9972 155.382 30.6152ZM169.515 35.6872C167.086 35.6872 164.971 33.8579 164.971 30.6152C164.971 27.3667 167.077 25.6099 169.449 25.6118C171.92 25.6118 173.024 27.2027 173.391 28.6295L176.865 27.3686C176.198 24.784 173.793 22.0658 169.415 22.0658C164.737 22.0658 161.095 25.6462 161.095 30.6171C161.095 35.5212 164.737 39.2008 169.515 39.2008C173.793 39.2008 176.231 36.4483 177 33.9304L173.591 32.7039C173.224 33.9304 172.055 35.6872 169.515 35.6872Z" fill="#EDF9FF"/>
</svg>
